<svg xmlns="http://www.w3.org/2000/svg" width="1400" height="560" viewBox="0 0 1400 560" fill="none">
  <defs>
    <linearGradient id="bg" x1="120" y1="44" x2="1288" y2="516" gradientUnits="userSpaceOnUse">
      <stop offset="0" stop-color="#163B63"/>
      <stop offset="1" stop-color="#0B1F35"/>
    </linearGradient>
    <radialGradient id="glow" cx="0" cy="0" r="1" gradientUnits="userSpaceOnUse" gradientTransform="translate(1044 212) rotate(90) scale(280 320)">
      <stop offset="0" stop-color="#4FD1C5" stop-opacity="0.24"/>
      <stop offset="1" stop-color="#4FD1C5" stop-opacity="0"/>
    </radialGradient>
    <linearGradient id="panel" x1="864" y1="72" x2="1302" y2="488" gradientUnits="userSpaceOnUse">
      <stop offset="0" stop-color="#153454"/>
      <stop offset="1" stop-color="#11263F"/>
    </linearGradient>
    <linearGradient id="paper" x1="944" y1="148" x2="1196" y2="422" gradientUnits="userSpaceOnUse">
      <stop offset="0" stop-color="#FCFEFF"/>
      <stop offset="1" stop-color="#DCEFF4"/>
    </linearGradient>
    <linearGradient id="paperEdge" x1="930" y1="158" x2="1188" y2="430" gradientUnits="userSpaceOnUse">
      <stop offset="0" stop-color="#B7D5DE"/>
      <stop offset="1" stop-color="#6FA0B1"/>
    </linearGradient>
    <linearGradient id="accent" x1="936" y1="356" x2="1204" y2="356" gradientUnits="userSpaceOnUse">
      <stop offset="0" stop-color="#F2A33A"/>
      <stop offset="1" stop-color="#FFC86C"/>
    </linearGradient>
    <filter id="shadow" x="888" y="124" width="360" height="352" filterUnits="userSpaceOnUse" color-interpolation-filters="sRGB">
      <feFlood flood-opacity="0" result="BackgroundImageFix"/>
      <feColorMatrix in="SourceAlpha" type="matrix" values="0 0 0 0 0 0 0 0 0 0 0 0 0 0 0 0 0 0 127 0" result="hardAlpha"/>
      <feOffset dy="22"/>
      <feGaussianBlur stdDeviation="22"/>
      <feColorMatrix type="matrix" values="0 0 0 0 0.0196078 0 0 0 0 0.113725 0 0 0 0 0.215686 0 0 0 0.32 0"/>
      <feBlend mode="normal" in2="BackgroundImageFix" result="effect1_dropShadow_1_1"/>
      <feBlend mode="normal" in="SourceGraphic" in2="effect1_dropShadow_1_1" result="shape"/>
    </filter>
  </defs>

  <rect x="20" y="20" width="1360" height="520" rx="42" fill="url(#bg)"/>
  <rect x="20" y="20" width="1360" height="520" rx="42" fill="url(#glow)"/>

  <g font-family="Segoe UI, DejaVu Sans, sans-serif">
    <rect x="88" y="78" width="284" height="42" rx="21" fill="#D7F5F0" fill-opacity="0.08" stroke="#7AE6DD" stroke-opacity="0.28"/>
    <text x="116" y="105" fill="#CFF7F1" font-size="20" font-weight="700">VS Code marketplace banner</text>

    <text x="88" y="202" fill="#F7FBFF" font-size="64" font-weight="800">MedPaper Assistant</text>
    <text x="88" y="252" fill="#C8DCEB" font-size="26" font-weight="500">AI toolkit for medical paper writing in VS Code.</text>
    <text x="88" y="288" fill="#C8DCEB" font-size="26" font-weight="500">Search, concept work, drafting, review, and export.</text>

    <rect x="88" y="334" width="180" height="88" rx="24" fill="#F8FCFF" fill-opacity="0.07" stroke="#7AE6DD" stroke-opacity="0.24"/>
    <text x="116" y="372" fill="#7AE6DD" font-size="16" font-weight="700">ORCHESTRATION</text>
    <text x="116" y="408" fill="#F7FBFF" font-size="28" font-weight="800">3 MCP servers</text>

    <rect x="290" y="334" width="168" height="88" rx="24" fill="#F8FCFF" fill-opacity="0.07" stroke="#7AE6DD" stroke-opacity="0.24"/>
    <text x="318" y="372" fill="#7AE6DD" font-size="16" font-weight="700">WORKFLOWS</text>
    <text x="318" y="408" fill="#F7FBFF" font-size="28" font-weight="800">26 skills</text>

    <rect x="480" y="334" width="254" height="88" rx="24" fill="#FFF4E6" fill-opacity="0.08" stroke="#F2A33A" stroke-opacity="0.32"/>
    <text x="508" y="372" fill="#FFD289" font-size="16" font-weight="700">AUTO PAPER</text>
    <text x="508" y="408" fill="#F7FBFF" font-size="28" font-weight="800">11 phases / 78 hooks</text>

    <rect x="88" y="454" width="480" height="30" rx="15" fill="#F2A33A" fill-opacity="0.14"/>
    <text x="112" y="474" fill="#FFE0A8" font-size="16" font-weight="700">Search  •  Think  •  Draft  •  Review  •  Export</text>

    <rect x="840" y="72" width="492" height="416" rx="34" fill="url(#panel)" stroke="#7AE6DD" stroke-opacity="0.24"/>
    <path d="M902 140C934 112 968 96 1004 90" stroke="#2CB5B0" stroke-opacity="0.24" stroke-width="10" stroke-linecap="round"/>
    <path d="M1260 120C1222 96 1184 82 1142 78" stroke="#7FE2DB" stroke-opacity="0.18" stroke-width="10" stroke-linecap="round"/>
    <circle cx="904" cy="140" r="12" fill="#F2A33A"/>
    <circle cx="1006" cy="90" r="10" fill="#4FD1C5"/>
    <circle cx="1142" cy="78" r="10" fill="#7FE2DB"/>
    <circle cx="1260" cy="120" r="12" fill="#4FD1C5"/>

    <g filter="url(#shadow)">
      <rect x="942" y="164" width="250" height="250" rx="28" fill="#A9C7D1"/>
      <rect x="952" y="150" width="250" height="250" rx="28" fill="url(#paperEdge)"/>
      <path d="M968 132H1146L1198 184V386C1198 401.464 1185.46 414 1170 414H968C952.536 414 940 401.464 940 386V160C940 144.536 952.536 132 968 132Z" fill="url(#paper)"/>
      <path d="M1146 132V170C1146 187.673 1160.33 202 1178 202H1198" fill="#D8F0F1"/>
      <path d="M1146 132V170C1146 187.673 1160.33 202 1178 202H1198" stroke="#78A8B8" stroke-width="12" stroke-linejoin="round"/>
      <path d="M968 132H1146L1198 184V386C1198 401.464 1185.46 414 1170 414H968C952.536 414 940 401.464 940 386V160C940 144.536 952.536 132 968 132Z" stroke="#0F2741" stroke-width="14" stroke-linejoin="round"/>
    </g>

    <rect x="990" y="188" width="126" height="14" rx="7" fill="#A2DAD6"/>
    <rect x="990" y="216" width="148" height="14" rx="7" fill="#D3E9EE"/>
    <rect x="990" y="244" width="104" height="14" rx="7" fill="#D3E9EE"/>

    <path d="M1002 342L1042 238L1078 306L1112 238L1152 342" stroke="#12355A" stroke-width="28" stroke-linecap="round" stroke-linejoin="round"/>
    <path d="M998 292H1032L1054 270L1076 310L1100 280H1156" stroke="#2CB5B0" stroke-width="12" stroke-linecap="round" stroke-linejoin="round"/>
    <circle cx="998" cy="292" r="8" fill="#2CB5B0"/>
    <circle cx="1156" cy="280" r="8" fill="#2CB5B0"/>

    <path d="M950 378H1204" stroke="#D2EAF0" stroke-width="10" stroke-linecap="round"/>
    <path d="M950 378L1024 378C1048 378 1060 356 1062 314C1068 358 1084 374 1108 374H1204" stroke="url(#accent)" stroke-width="20" stroke-linecap="round" stroke-linejoin="round"/>
    <circle cx="962" cy="378" r="10" fill="#F2A33A"/>
    <circle cx="1190" cy="374" r="10" fill="#F2A33A"/>

    <text x="908" y="452" fill="#C8DCEB" font-size="20" font-weight="600">Matches the VSX icon</text>
    <text x="908" y="478" fill="#C8DCEB" font-size="20" font-weight="600">and repo docs visuals</text>
  </g>
</svg>
