<svg xmlns="http://www.w3.org/2000/svg" width="1800" height="1100" viewBox="0 0 1800 1100" fill="none">
  <defs>
    <linearGradient id="bg" x1="0" y1="0" x2="1800" y2="1100" gradientUnits="userSpaceOnUse">
      <stop offset="0" stop-color="#183E67"/>
      <stop offset="1" stop-color="#0B1E31"/>
    </linearGradient>
  </defs>

  <rect width="1800" height="1100" rx="36" fill="url(#bg)"/>

  <g font-family="Segoe UI, DejaVu Sans, sans-serif">
    <text x="104" y="132" fill="#F7FBFF" font-size="56" font-weight="800">MedPaper Assistant architecture</text>
    <text x="104" y="180" fill="#C8DCEB" font-size="26">A VS Code-first system where the agent, MCP servers, and project files stay aligned around one shared workspace.</text>

    <rect x="104" y="236" width="1128" height="704" rx="34" fill="#F8FCFF" fill-opacity="0.05" stroke="#7AE6DD" stroke-opacity="0.22"/>
    <text x="146" y="296" fill="#7AE6DD" font-size="22" font-weight="700">SYSTEM VIEW</text>

    <rect x="146" y="340" width="1044" height="136" rx="28" fill="#102A46" stroke="#7AE6DD" stroke-opacity="0.22"/>
    <text x="188" y="386" fill="#7AE6DD" font-size="18" font-weight="700">VS CODE SURFACES</text>
    <rect x="188" y="408" width="292" height="44" rx="18" fill="#F8FCFF" fill-opacity="0.08"/>
    <text x="216" y="437" fill="#F7FBFF" font-size="24" font-weight="700">Copilot Agent Mode</text>
    <rect x="510" y="408" width="256" height="44" rx="18" fill="#F8FCFF" fill-opacity="0.08"/>
    <text x="538" y="437" fill="#F7FBFF" font-size="24" font-weight="700">MedPaper Extension</text>
    <rect x="796" y="408" width="140" height="44" rx="18" fill="#F8FCFF" fill-opacity="0.08"/>
    <text x="838" y="437" fill="#F7FBFF" font-size="24" font-weight="700">Foam</text>
    <rect x="966" y="408" width="182" height="44" rx="18" fill="#F8FCFF" fill-opacity="0.08"/>
    <text x="996" y="437" fill="#F7FBFF" font-size="24" font-weight="700">Dashboard</text>

    <rect x="146" y="548" width="1044" height="180" rx="28" fill="#102741" stroke="#7AE6DD" stroke-opacity="0.22"/>
    <text x="188" y="596" fill="#7AE6DD" font-size="18" font-weight="700">MCP LAYER</text>
    <rect x="188" y="624" width="360" height="68" rx="22" fill="#FFF4E6" fill-opacity="0.08" stroke="#F2A33A" stroke-opacity="0.3"/>
    <text x="220" y="667" fill="#F7FBFF" font-size="30" font-weight="800">mdpaper MCP</text>
    <rect x="584" y="624" width="214" height="68" rx="22" fill="#F8FCFF" fill-opacity="0.08" stroke="#7AE6DD" stroke-opacity="0.22"/>
    <text x="616" y="667" fill="#F7FBFF" font-size="28" font-weight="800">PubMed</text>
    <rect x="834" y="624" width="144" height="68" rx="22" fill="#F8FCFF" fill-opacity="0.08" stroke="#7AE6DD" stroke-opacity="0.22"/>
    <text x="884" y="667" fill="#F7FBFF" font-size="28" font-weight="800">CGU</text>
    <rect x="1014" y="624" width="134" height="68" rx="22" fill="#F8FCFF" fill-opacity="0.08" stroke="#7AE6DD" stroke-opacity="0.22"/>
    <text x="1044" y="667" fill="#F7FBFF" font-size="28" font-weight="800">Draw.io</text>

    <rect x="286" y="796" width="764" height="96" rx="28" fill="#F8FCFF" fill-opacity="0.08" stroke="#7AE6DD" stroke-opacity="0.24"/>
    <text x="320" y="834" fill="#7AE6DD" font-size="18" font-weight="700">SHARED PROJECT STATE</text>
    <text x="320" y="874" fill="#F7FBFF" font-size="34" font-weight="800">projects/{slug}</text>

    <path d="M668 476V548" stroke="#7AE6DD" stroke-width="8" stroke-linecap="round"/>
    <path d="M668 728V796" stroke="#7AE6DD" stroke-width="8" stroke-linecap="round"/>
    <circle cx="668" cy="476" r="10" fill="#7AE6DD"/>
    <circle cx="668" cy="548" r="10" fill="#7AE6DD"/>
    <circle cx="668" cy="728" r="10" fill="#7AE6DD"/>
    <circle cx="668" cy="796" r="10" fill="#7AE6DD"/>

    <path d="M548 658H584" stroke="#F2A33A" stroke-width="8" stroke-linecap="round"/>
    <path d="M798 658H834" stroke="#F2A33A" stroke-width="8" stroke-linecap="round"/>
    <path d="M978 658H1014" stroke="#F2A33A" stroke-width="8" stroke-linecap="round"/>
    <circle cx="548" cy="658" r="10" fill="#F2A33A"/>
    <circle cx="584" cy="658" r="10" fill="#F2A33A"/>
    <circle cx="798" cy="658" r="10" fill="#F2A33A"/>
    <circle cx="834" cy="658" r="10" fill="#F2A33A"/>
    <circle cx="978" cy="658" r="10" fill="#F2A33A"/>
    <circle cx="1014" cy="658" r="10" fill="#F2A33A"/>

    <rect x="1276" y="236" width="420" height="704" rx="34" fill="#F8FCFF" fill-opacity="0.05" stroke="#F2A33A" stroke-opacity="0.22"/>
    <text x="1316" y="296" fill="#FFD289" font-size="22" font-weight="700">DDD VIEW</text>

    <rect x="1316" y="344" width="340" height="92" rx="24" fill="#F8FCFF" fill-opacity="0.08" stroke="#7AE6DD" stroke-opacity="0.22"/>
    <text x="1350" y="396" fill="#F7FBFF" font-size="30" font-weight="800">Interfaces</text>

    <rect x="1316" y="478" width="340" height="92" rx="24" fill="#F8FCFF" fill-opacity="0.08" stroke="#7AE6DD" stroke-opacity="0.22"/>
    <text x="1350" y="530" fill="#F7FBFF" font-size="30" font-weight="800">Application</text>

    <rect x="1316" y="612" width="340" height="92" rx="24" fill="#FFF4E6" fill-opacity="0.08" stroke="#F2A33A" stroke-opacity="0.3"/>
    <text x="1350" y="664" fill="#F7FBFF" font-size="30" font-weight="800">Domain</text>

    <rect x="1316" y="746" width="340" height="92" rx="24" fill="#F8FCFF" fill-opacity="0.08" stroke="#7AE6DD" stroke-opacity="0.22"/>
    <text x="1350" y="798" fill="#F7FBFF" font-size="30" font-weight="800">Infrastructure</text>

    <path d="M1486 436V478" stroke="#7AE6DD" stroke-width="8" stroke-linecap="round"/>
    <path d="M1486 570V612" stroke="#7AE6DD" stroke-width="8" stroke-linecap="round"/>
    <path d="M1486 704V746" stroke="#7AE6DD" stroke-width="8" stroke-linecap="round"/>
    <circle cx="1486" cy="436" r="10" fill="#7AE6DD"/>
    <circle cx="1486" cy="478" r="10" fill="#7AE6DD"/>
    <circle cx="1486" cy="570" r="10" fill="#7AE6DD"/>
    <circle cx="1486" cy="612" r="10" fill="#7AE6DD"/>
    <circle cx="1486" cy="704" r="10" fill="#7AE6DD"/>
    <circle cx="1486" cy="746" r="10" fill="#7AE6DD"/>

    <text x="1316" y="894" fill="#C8DCEB" font-size="20">Filesystem is the shared state across all surfaces.</text>
  </g>
</svg>
